<svg xmlns="http://www.w3.org/2000/svg" width="60" height="60" viewBox="0 0 60 60">
  <path id="_001-facebook" data-name="001-facebook" d="M55.673,0H4.327A4.327,4.327,0,0,0,0,4.327V55.672A4.327,4.327,0,0,0,4.327,60H32.051V36.8H24.258V27.714h7.793V21.031c0-7.751,4.732-11.97,11.646-11.97a64.09,64.09,0,0,1,6.987.357v8.1H45.916c-3.762,0-4.49,1.788-4.49,4.411v5.784H50.42L49.248,36.8H41.426V60H55.673A4.327,4.327,0,0,0,60,55.672V4.327A4.327,4.327,0,0,0,55.673,0Zm0,0" transform="translate(0 0)" fill="#fff"/>
</svg>
