<svg id="_011-instagram" data-name="011-instagram" xmlns="http://www.w3.org/2000/svg" width="60" height="60" viewBox="0 0 60 60">
  <path id="Caminho_123" data-name="Caminho 123" d="M163.037,139.451a5.7,5.7,0,0,0-3.269-3.269,9.531,9.531,0,0,0-3.2-.593c-1.817-.083-2.362-.1-6.961-.1s-5.145.017-6.961.1a9.537,9.537,0,0,0-3.2.593,5.707,5.707,0,0,0-3.27,3.269,9.534,9.534,0,0,0-.593,3.2c-.083,1.816-.1,2.361-.1,6.961s.018,5.144.1,6.961a9.531,9.531,0,0,0,.593,3.2,5.7,5.7,0,0,0,3.269,3.269,9.52,9.52,0,0,0,3.2.593c1.816.083,2.361.1,6.961.1s5.145-.017,6.961-.1a9.52,9.52,0,0,0,3.2-.593,5.7,5.7,0,0,0,3.269-3.269,9.54,9.54,0,0,0,.593-3.2c.083-1.817.1-2.362.1-6.961s-.017-5.145-.1-6.961A9.52,9.52,0,0,0,163.037,139.451Zm-13.429,19.005a8.846,8.846,0,1,1,8.846-8.846A8.846,8.846,0,0,1,149.608,158.457Zm9.2-15.974a2.067,2.067,0,1,1,2.067-2.067A2.067,2.067,0,0,1,158.8,142.483Zm0,0" transform="translate(-119.608 -119.611)" fill="#fff"/>
  <path id="Caminho_124" data-name="Caminho 124" d="M218.484,212.742A5.742,5.742,0,1,1,212.742,207,5.742,5.742,0,0,1,218.484,212.742Zm0,0" transform="translate(-182.742 -182.742)" fill="#fff"/>
  <path id="Caminho_125" data-name="Caminho 125" d="M55.673,0H4.327A4.327,4.327,0,0,0,0,4.327V55.673A4.327,4.327,0,0,0,4.327,60H55.673A4.327,4.327,0,0,0,60,55.673V4.327A4.327,4.327,0,0,0,55.673,0Zm-8.55,37.1a12.639,12.639,0,0,1-.8,4.182,8.808,8.808,0,0,1-5.038,5.038,12.647,12.647,0,0,1-4.181.8c-1.837.084-2.424.1-7.1.1s-5.265-.02-7.1-.1a12.648,12.648,0,0,1-4.181-.8,8.808,8.808,0,0,1-5.038-5.038,12.636,12.636,0,0,1-.8-4.181c-.085-1.837-.1-2.424-.1-7.1s.02-5.265.1-7.1a12.64,12.64,0,0,1,.8-4.182,8.814,8.814,0,0,1,5.039-5.038,12.65,12.65,0,0,1,4.182-.8c1.837-.084,2.424-.1,7.1-.1s5.265.02,7.1.1a12.653,12.653,0,0,1,4.182.8,8.811,8.811,0,0,1,5.038,5.039,12.637,12.637,0,0,1,.8,4.182c.084,1.837.1,2.424.1,7.1S47.207,35.265,47.123,37.1Zm0,0" transform="translate(0)" fill="#fff"/>
</svg>
